<mxfile host="app.diagrams.net" modified="2024-07-18T09:46:14.426Z" agent="Mozilla/5.0 (Macintosh; Intel Mac OS X 10_15_7) AppleWebKit/537.36 (KHTML, like Gecko) Chrome/126.0.0.0 Safari/537.36" etag="XWyO9TOnAYLzBOWwiB6w" version="24.7.0" type="github" pages="2">
  <diagram name="第 1 页" id="q8hEzm-3ZmMBjOJgn9qx">
    <mxGraphModel dx="1434" dy="761" grid="1" gridSize="10" guides="1" tooltips="1" connect="1" arrows="1" fold="1" page="1" pageScale="1" pageWidth="3300" pageHeight="4681" math="0" shadow="0">
      <root>
        <mxCell id="0" />
        <mxCell id="1" parent="0" />
        <mxCell id="uQ-FNc1cqQP5Vbbio9IM-2" value="学工门户" style="rounded=0;whiteSpace=wrap;html=1;" parent="1" vertex="1">
          <mxGeometry x="150" y="250" width="520" height="150" as="geometry" />
        </mxCell>
        <mxCell id="KOqdbeGSPdCPdFGqDDnY-95" value="DevOps支撑" style="rounded=0;whiteSpace=wrap;html=1;verticalAlign=top;" parent="1" vertex="1">
          <mxGeometry x="700" y="200" width="120" height="450" as="geometry" />
        </mxCell>
        <mxCell id="KOqdbeGSPdCPdFGqDDnY-68" value="指标监控" style="rounded=0;whiteSpace=wrap;html=1;verticalAlign=top;" parent="1" vertex="1">
          <mxGeometry x="980" y="200" width="120" height="800" as="geometry" />
        </mxCell>
        <mxCell id="KOqdbeGSPdCPdFGqDDnY-3" value="应用" style="rounded=0;whiteSpace=wrap;html=1;verticalAlign=top;" parent="1" vertex="1">
          <mxGeometry x="250" y="290" width="400" height="90" as="geometry" />
        </mxCell>
        <mxCell id="KOqdbeGSPdCPdFGqDDnY-4" value="学生公寓" style="rounded=0;whiteSpace=wrap;html=1;" parent="1" vertex="1">
          <mxGeometry x="265" y="325" width="80" height="40" as="geometry" />
        </mxCell>
        <mxCell id="KOqdbeGSPdCPdFGqDDnY-5" value="低代码运行平台" style="rounded=0;whiteSpace=wrap;html=1;verticalAlign=top;" parent="1" vertex="1">
          <mxGeometry x="150" y="415" width="260" height="230" as="geometry" />
        </mxCell>
        <mxCell id="KOqdbeGSPdCPdFGqDDnY-20" value="三方核验" style="rounded=0;whiteSpace=wrap;html=1;" parent="1" vertex="1">
          <mxGeometry x="360" y="325" width="80" height="40" as="geometry" />
        </mxCell>
        <mxCell id="KOqdbeGSPdCPdFGqDDnY-21" value="信息发布" style="rounded=0;whiteSpace=wrap;html=1;" parent="1" vertex="1">
          <mxGeometry x="465" y="325" width="80" height="40" as="geometry" />
        </mxCell>
        <mxCell id="KOqdbeGSPdCPdFGqDDnY-22" value="学工门户" style="rounded=0;whiteSpace=wrap;html=1;" parent="1" vertex="1">
          <mxGeometry x="170" y="290" width="60" height="90" as="geometry" />
        </mxCell>
        <mxCell id="KOqdbeGSPdCPdFGqDDnY-24" value="数据存储层" style="rounded=0;whiteSpace=wrap;html=1;verticalAlign=top;" parent="1" vertex="1">
          <mxGeometry x="150" y="670" width="670" height="90" as="geometry" />
        </mxCell>
        <mxCell id="KOqdbeGSPdCPdFGqDDnY-25" value="MySQL" style="rounded=0;whiteSpace=wrap;html=1;" parent="1" vertex="1">
          <mxGeometry x="170" y="700" width="80" height="40" as="geometry" />
        </mxCell>
        <mxCell id="KOqdbeGSPdCPdFGqDDnY-26" value="Oracle" style="rounded=0;whiteSpace=wrap;html=1;" parent="1" vertex="1">
          <mxGeometry x="310" y="700" width="80" height="40" as="geometry" />
        </mxCell>
        <mxCell id="KOqdbeGSPdCPdFGqDDnY-27" value="MongoDB" style="rounded=0;whiteSpace=wrap;html=1;" parent="1" vertex="1">
          <mxGeometry x="445" y="700" width="80" height="40" as="geometry" />
        </mxCell>
        <mxCell id="KOqdbeGSPdCPdFGqDDnY-30" value="Redis" style="rounded=0;whiteSpace=wrap;html=1;" parent="1" vertex="1">
          <mxGeometry x="580" y="700" width="80" height="40" as="geometry" />
        </mxCell>
        <mxCell id="KOqdbeGSPdCPdFGqDDnY-37" value="日志分析" style="rounded=0;whiteSpace=wrap;html=1;verticalAlign=top;" parent="1" vertex="1">
          <mxGeometry x="840" y="200" width="120" height="680" as="geometry" />
        </mxCell>
        <mxCell id="KOqdbeGSPdCPdFGqDDnY-38" value="Fluentd" style="rounded=0;whiteSpace=wrap;html=1;" parent="1" vertex="1">
          <mxGeometry x="860" y="330" width="80" height="40" as="geometry" />
        </mxCell>
        <mxCell id="KOqdbeGSPdCPdFGqDDnY-39" value="ES" style="rounded=0;whiteSpace=wrap;html=1;" parent="1" vertex="1">
          <mxGeometry x="860" y="260" width="80" height="40" as="geometry" />
        </mxCell>
        <mxCell id="KOqdbeGSPdCPdFGqDDnY-41" value="Prometheus" style="rounded=0;whiteSpace=wrap;html=1;" parent="1" vertex="1">
          <mxGeometry x="1000" y="260" width="80" height="40" as="geometry" />
        </mxCell>
        <mxCell id="KOqdbeGSPdCPdFGqDDnY-44" value="Grafana" style="rounded=0;whiteSpace=wrap;html=1;" parent="1" vertex="1">
          <mxGeometry x="720" y="260" width="80" height="40" as="geometry" />
        </mxCell>
        <mxCell id="KOqdbeGSPdCPdFGqDDnY-45" value="Skywalking" style="rounded=0;whiteSpace=wrap;html=1;" parent="1" vertex="1">
          <mxGeometry x="720" y="320" width="80" height="40" as="geometry" />
        </mxCell>
        <mxCell id="KOqdbeGSPdCPdFGqDDnY-54" value="中台" style="rounded=0;whiteSpace=wrap;html=1;verticalAlign=top;" parent="1" vertex="1">
          <mxGeometry x="430" y="415" width="240" height="230" as="geometry" />
        </mxCell>
        <mxCell id="KOqdbeGSPdCPdFGqDDnY-55" value="用户中心" style="rounded=0;whiteSpace=wrap;html=1;" parent="1" vertex="1">
          <mxGeometry x="460" y="445" width="80" height="30" as="geometry" />
        </mxCell>
        <mxCell id="KOqdbeGSPdCPdFGqDDnY-56" value="服务授权" style="rounded=0;whiteSpace=wrap;html=1;" parent="1" vertex="1">
          <mxGeometry x="460" y="555" width="80" height="30" as="geometry" />
        </mxCell>
        <mxCell id="KOqdbeGSPdCPdFGqDDnY-57" value="功能授权" style="rounded=0;whiteSpace=wrap;html=1;" parent="1" vertex="1">
          <mxGeometry x="460" y="500" width="80" height="35" as="geometry" />
        </mxCell>
        <mxCell id="KOqdbeGSPdCPdFGqDDnY-58" value="身份认证" style="rounded=0;whiteSpace=wrap;html=1;" parent="1" vertex="1">
          <mxGeometry x="560" y="445" width="80" height="30" as="geometry" />
        </mxCell>
        <mxCell id="KOqdbeGSPdCPdFGqDDnY-61" value="容器化以及编排" style="rounded=0;whiteSpace=wrap;html=1;verticalAlign=top;" parent="1" vertex="1">
          <mxGeometry x="150" y="780" width="670" height="100" as="geometry" />
        </mxCell>
        <mxCell id="KOqdbeGSPdCPdFGqDDnY-62" value="Docker" style="rounded=0;whiteSpace=wrap;html=1;" parent="1" vertex="1">
          <mxGeometry x="170" y="820" width="100" height="40" as="geometry" />
        </mxCell>
        <mxCell id="KOqdbeGSPdCPdFGqDDnY-63" value="K8s" style="rounded=0;whiteSpace=wrap;html=1;" parent="1" vertex="1">
          <mxGeometry x="670" y="820" width="120" height="40" as="geometry" />
        </mxCell>
        <mxCell id="KOqdbeGSPdCPdFGqDDnY-64" value="数据授权" style="rounded=0;whiteSpace=wrap;html=1;" parent="1" vertex="1">
          <mxGeometry x="560" y="500" width="80" height="35" as="geometry" />
        </mxCell>
        <mxCell id="KOqdbeGSPdCPdFGqDDnY-66" value="应用中心" style="rounded=0;whiteSpace=wrap;html=1;" parent="1" vertex="1">
          <mxGeometry x="560" y="555" width="80" height="30" as="geometry" />
        </mxCell>
        <mxCell id="KOqdbeGSPdCPdFGqDDnY-70" value="报表" style="rounded=0;whiteSpace=wrap;html=1;" parent="1" vertex="1">
          <mxGeometry x="190" y="520" width="80" height="40" as="geometry" />
        </mxCell>
        <mxCell id="KOqdbeGSPdCPdFGqDDnY-71" value="大屏" style="rounded=0;whiteSpace=wrap;html=1;" parent="1" vertex="1">
          <mxGeometry x="300" y="520" width="80" height="40" as="geometry" />
        </mxCell>
        <mxCell id="KOqdbeGSPdCPdFGqDDnY-73" value="渲染引擎" style="rounded=0;whiteSpace=wrap;html=1;" parent="1" vertex="1">
          <mxGeometry x="190" y="465" width="80" height="40" as="geometry" />
        </mxCell>
        <mxCell id="KOqdbeGSPdCPdFGqDDnY-74" value="执行引擎" style="rounded=0;whiteSpace=wrap;html=1;" parent="1" vertex="1">
          <mxGeometry x="300" y="465" width="80" height="40" as="geometry" />
        </mxCell>
        <mxCell id="KOqdbeGSPdCPdFGqDDnY-75" value="流程引擎" style="rounded=0;whiteSpace=wrap;html=1;" parent="1" vertex="1">
          <mxGeometry x="190" y="575" width="80" height="40" as="geometry" />
        </mxCell>
        <mxCell id="KOqdbeGSPdCPdFGqDDnY-78" value="MinIO" style="rounded=0;whiteSpace=wrap;html=1;" parent="1" vertex="1">
          <mxGeometry x="720" y="700" width="80" height="40" as="geometry" />
        </mxCell>
        <mxCell id="KOqdbeGSPdCPdFGqDDnY-81" value="......" style="rounded=0;whiteSpace=wrap;html=1;" parent="1" vertex="1">
          <mxGeometry x="300" y="575" width="80" height="40" as="geometry" />
        </mxCell>
        <mxCell id="KOqdbeGSPdCPdFGqDDnY-82" value="配置中心" style="rounded=0;whiteSpace=wrap;html=1;" parent="1" vertex="1">
          <mxGeometry x="560" y="605" width="80" height="30" as="geometry" />
        </mxCell>
        <mxCell id="KOqdbeGSPdCPdFGqDDnY-83" value="......" style="rounded=0;whiteSpace=wrap;html=1;" parent="1" vertex="1">
          <mxGeometry x="555" y="325" width="80" height="40" as="geometry" />
        </mxCell>
        <mxCell id="KOqdbeGSPdCPdFGqDDnY-84" value="Ingress负载均衡" style="rounded=0;whiteSpace=wrap;html=1;verticalAlign=middle;" parent="1" vertex="1">
          <mxGeometry x="150" y="200" width="520" height="40" as="geometry" />
        </mxCell>
        <mxCell id="KOqdbeGSPdCPdFGqDDnY-85" value="基础设施" style="rounded=0;whiteSpace=wrap;html=1;verticalAlign=top;" parent="1" vertex="1">
          <mxGeometry x="150" y="900" width="810" height="100" as="geometry" />
        </mxCell>
        <mxCell id="KOqdbeGSPdCPdFGqDDnY-86" value="私有云" style="rounded=0;whiteSpace=wrap;html=1;" parent="1" vertex="1">
          <mxGeometry x="240" y="940" width="100" height="40" as="geometry" />
        </mxCell>
        <mxCell id="KOqdbeGSPdCPdFGqDDnY-87" value="混合云" style="rounded=0;whiteSpace=wrap;html=1;" parent="1" vertex="1">
          <mxGeometry x="430" y="940" width="100" height="40" as="geometry" />
        </mxCell>
        <mxCell id="KOqdbeGSPdCPdFGqDDnY-88" value="公有云" style="rounded=0;whiteSpace=wrap;html=1;" parent="1" vertex="1">
          <mxGeometry x="630" y="940" width="100" height="40" as="geometry" />
        </mxCell>
        <mxCell id="KOqdbeGSPdCPdFGqDDnY-89" value="Kibana" style="rounded=0;whiteSpace=wrap;html=1;" parent="1" vertex="1">
          <mxGeometry x="860" y="400" width="80" height="40" as="geometry" />
        </mxCell>
        <mxCell id="KOqdbeGSPdCPdFGqDDnY-90" value="K3s" style="rounded=0;whiteSpace=wrap;html=1;" parent="1" vertex="1">
          <mxGeometry x="435" y="820" width="100" height="40" as="geometry" />
        </mxCell>
        <mxCell id="KOqdbeGSPdCPdFGqDDnY-91" value="cAdivisor" style="rounded=0;whiteSpace=wrap;html=1;" parent="1" vertex="1">
          <mxGeometry x="1000" y="335" width="80" height="40" as="geometry" />
        </mxCell>
        <mxCell id="KOqdbeGSPdCPdFGqDDnY-92" value="Storage Metrics" style="rounded=0;whiteSpace=wrap;html=1;" parent="1" vertex="1">
          <mxGeometry x="1000" y="405" width="80" height="40" as="geometry" />
        </mxCell>
        <mxCell id="KOqdbeGSPdCPdFGqDDnY-93" value="Node&lt;div&gt;Exporter&lt;/div&gt;" style="rounded=0;whiteSpace=wrap;html=1;" parent="1" vertex="1">
          <mxGeometry x="1000" y="475" width="80" height="40" as="geometry" />
        </mxCell>
        <mxCell id="KOqdbeGSPdCPdFGqDDnY-94" value="Blackbox&lt;div&gt;Exporter&lt;/div&gt;" style="rounded=0;whiteSpace=wrap;html=1;" parent="1" vertex="1">
          <mxGeometry x="1000" y="545" width="80" height="40" as="geometry" />
        </mxCell>
        <mxCell id="KOqdbeGSPdCPdFGqDDnY-96" value="灵捷平台" style="rounded=0;whiteSpace=wrap;html=1;" parent="1" vertex="1">
          <mxGeometry x="720" y="380" width="80" height="40" as="geometry" />
        </mxCell>
        <mxCell id="KOqdbeGSPdCPdFGqDDnY-97" value="Kube State&lt;div&gt;Metrics&lt;/div&gt;" style="rounded=0;whiteSpace=wrap;html=1;" parent="1" vertex="1">
          <mxGeometry x="1000" y="620" width="80" height="40" as="geometry" />
        </mxCell>
        <mxCell id="KOqdbeGSPdCPdFGqDDnY-98" value="低代码开发平台" style="rounded=0;whiteSpace=wrap;html=1;" parent="1" vertex="1">
          <mxGeometry x="720" y="440" width="80" height="40" as="geometry" />
        </mxCell>
        <mxCell id="KOqdbeGSPdCPdFGqDDnY-99" value="消息中心" style="rounded=0;whiteSpace=wrap;html=1;" parent="1" vertex="1">
          <mxGeometry x="460" y="605" width="80" height="30" as="geometry" />
        </mxCell>
      </root>
    </mxGraphModel>
  </diagram>
  <diagram id="xCv1lbt1jgZM3lcgzXiE" name="低代码技术架构">
    <mxGraphModel dx="1434" dy="5442" grid="0" gridSize="10" guides="1" tooltips="1" connect="1" arrows="1" fold="1" page="1" pageScale="1" pageWidth="3300" pageHeight="4681" background="none" math="0" shadow="0">
      <root>
        <mxCell id="0" />
        <mxCell id="1" parent="0" />
        <mxCell id="V4SBivtTWdESJ9Hyds8n-2" value="" style="rounded=0;whiteSpace=wrap;html=1;verticalAlign=top;fillColor=#EDEDED;strokeColor=none;fontColor=#333333;opacity=80;movable=0;resizable=0;rotatable=0;deletable=0;editable=0;locked=1;connectable=0;" vertex="1" parent="1">
          <mxGeometry x="424" y="297" width="1208" height="599" as="geometry" />
        </mxCell>
        <mxCell id="V4SBivtTWdESJ9Hyds8n-20" value="容器编排" style="rounded=1;whiteSpace=wrap;html=1;verticalAlign=top;fillColor=#dae8fc;strokeColor=none;fontColor=#7EA6E0;" vertex="1" parent="1">
          <mxGeometry x="1180" y="729" width="310" height="71" as="geometry" />
        </mxCell>
        <mxCell id="jI6AEKwuXM7HXxSCReEK-1" value="支撑服务" style="rounded=1;whiteSpace=wrap;html=1;verticalAlign=top;fillColor=#dae8fc;strokeColor=none;fontColor=#7EA6E0;" vertex="1" parent="1">
          <mxGeometry x="551" y="559" width="797" height="60" as="geometry" />
        </mxCell>
        <mxCell id="ZbT44DyfTlQuuJ5r1V82-116" value="分布式缓存/对象存储/文件存储" style="rounded=1;whiteSpace=wrap;html=1;verticalAlign=top;fillColor=#dae8fc;strokeColor=none;fontColor=#7EA6E0;" vertex="1" parent="1">
          <mxGeometry x="1081.5" y="629" width="408.5" height="90" as="geometry" />
        </mxCell>
        <mxCell id="ZbT44DyfTlQuuJ5r1V82-2" value="DevOps" style="rounded=1;whiteSpace=wrap;html=1;verticalAlign=top;fillColor=#dae8fc;strokeColor=none;fontColor=#7EA6E0;" vertex="1" parent="1">
          <mxGeometry x="1361" y="478" width="120" height="140" as="geometry" />
        </mxCell>
        <mxCell id="ZbT44DyfTlQuuJ5r1V82-3" value="监控" style="rounded=1;whiteSpace=wrap;html=1;verticalAlign=top;fillColor=#dae8fc;strokeColor=none;fontColor=#7EA6E0;" vertex="1" parent="1">
          <mxGeometry x="1499" y="308" width="120" height="583" as="geometry" />
        </mxCell>
        <mxCell id="ZbT44DyfTlQuuJ5r1V82-6" value="" style="rounded=1;whiteSpace=wrap;html=1;verticalAlign=middle;fillColor=#DAE8FC;fontColor=#7EA6E0;strokeColor=none;" vertex="1" parent="1">
          <mxGeometry x="546" y="393" width="796" height="44" as="geometry" />
        </mxCell>
        <mxCell id="ZbT44DyfTlQuuJ5r1V82-10" value="高可用数据库" style="rounded=1;whiteSpace=wrap;html=1;verticalAlign=top;fillColor=#dae8fc;strokeColor=none;fontColor=#7EA6E0;" vertex="1" parent="1">
          <mxGeometry x="433" y="627" width="632.5" height="90" as="geometry" />
        </mxCell>
        <mxCell id="ZbT44DyfTlQuuJ5r1V82-15" value="日志分析" style="rounded=1;whiteSpace=wrap;html=1;verticalAlign=top;fillColor=#DAE8FC;strokeColor=none;fontColor=#7EA6E0;" vertex="1" parent="1">
          <mxGeometry x="1360" y="393" width="120" height="75" as="geometry" />
        </mxCell>
        <mxCell id="ZbT44DyfTlQuuJ5r1V82-18" value="Prometheus" style="rounded=1;whiteSpace=wrap;html=1;fillColor=#7EA6E0;fontColor=#FFFFFF;strokeColor=none;" vertex="1" parent="1">
          <mxGeometry x="1519" y="334" width="80" height="40" as="geometry" />
        </mxCell>
        <mxCell id="ZbT44DyfTlQuuJ5r1V82-26" value="容器化" style="rounded=1;whiteSpace=wrap;html=1;verticalAlign=top;fillColor=#dae8fc;strokeColor=none;fontColor=#7EA6E0;" vertex="1" parent="1">
          <mxGeometry x="433" y="728" width="729.5" height="71" as="geometry" />
        </mxCell>
        <mxCell id="ZbT44DyfTlQuuJ5r1V82-27" value="Docker" style="rounded=1;whiteSpace=wrap;html=1;fillColor=#7EA6E0;strokeColor=none;fontColor=#FFFFFF;" vertex="1" parent="1">
          <mxGeometry x="455" y="758" width="100" height="30" as="geometry" />
        </mxCell>
        <mxCell id="ZbT44DyfTlQuuJ5r1V82-28" value="K8s" style="rounded=1;whiteSpace=wrap;html=1;fillColor=#7EA6E0;strokeColor=none;fontColor=#FFFFFF;" vertex="1" parent="1">
          <mxGeometry x="1211.5" y="757" width="100" height="30" as="geometry" />
        </mxCell>
        <mxCell id="ZbT44DyfTlQuuJ5r1V82-41" value="&amp;nbsp; &amp;nbsp; 基础设施" style="rounded=1;whiteSpace=wrap;html=1;verticalAlign=top;fillColor=#dae8fc;strokeColor=none;fontColor=#7EA6E0;align=left;" vertex="1" parent="1">
          <mxGeometry x="433" y="810" width="1044" height="74" as="geometry" />
        </mxCell>
        <mxCell id="ZbT44DyfTlQuuJ5r1V82-42" value="私有云" style="rounded=1;whiteSpace=wrap;html=1;fillColor=#7EA6E0;strokeColor=none;fontColor=#FFFFFF;shadow=0;glass=0;" vertex="1" parent="1">
          <mxGeometry x="477" y="1153" width="319.5" height="30" as="geometry" />
        </mxCell>
        <mxCell id="ZbT44DyfTlQuuJ5r1V82-43" value="混合云" style="rounded=1;whiteSpace=wrap;html=1;fillColor=#7EA6E0;strokeColor=none;fontColor=#FFFFFF;" vertex="1" parent="1">
          <mxGeometry x="765" y="1052" width="330" height="30" as="geometry" />
        </mxCell>
        <mxCell id="ZbT44DyfTlQuuJ5r1V82-44" value="公有云" style="rounded=1;whiteSpace=wrap;html=1;fillColor=#7EA6E0;strokeColor=none;fontColor=#FFFFFF;" vertex="1" parent="1">
          <mxGeometry x="1168" y="1024" width="309.25" height="30" as="geometry" />
        </mxCell>
        <mxCell id="ZbT44DyfTlQuuJ5r1V82-47" value="cAdivisor" style="rounded=1;whiteSpace=wrap;html=1;fillColor=#7EA6E0;fontColor=#FFFFFF;strokeColor=none;" vertex="1" parent="1">
          <mxGeometry x="1519" y="406" width="80" height="40" as="geometry" />
        </mxCell>
        <mxCell id="ZbT44DyfTlQuuJ5r1V82-48" value="Storage Metrics" style="rounded=1;whiteSpace=wrap;html=1;fillColor=#7EA6E0;fontColor=#FFFFFF;strokeColor=none;" vertex="1" parent="1">
          <mxGeometry x="1519" y="479" width="80" height="40" as="geometry" />
        </mxCell>
        <mxCell id="ZbT44DyfTlQuuJ5r1V82-49" value="Node&lt;div&gt;Exporter&lt;/div&gt;" style="rounded=1;whiteSpace=wrap;html=1;fillColor=#7EA6E0;fontColor=#FFFFFF;strokeColor=none;" vertex="1" parent="1">
          <mxGeometry x="1519" y="551" width="80" height="40" as="geometry" />
        </mxCell>
        <mxCell id="ZbT44DyfTlQuuJ5r1V82-50" value="Blackbox&lt;div&gt;Exporter&lt;/div&gt;" style="rounded=1;whiteSpace=wrap;html=1;fillColor=#7EA6E0;fontColor=#FFFFFF;strokeColor=none;" vertex="1" parent="1">
          <mxGeometry x="1519" y="623" width="80" height="40" as="geometry" />
        </mxCell>
        <mxCell id="ZbT44DyfTlQuuJ5r1V82-51" value="灵捷平台" style="rounded=1;whiteSpace=wrap;html=1;fillColor=#7EA6E0;fontColor=#FFFFFF;strokeColor=none;" vertex="1" parent="1">
          <mxGeometry x="1381" y="564" width="80" height="30" as="geometry" />
        </mxCell>
        <mxCell id="ZbT44DyfTlQuuJ5r1V82-52" value="Kube State&lt;div&gt;Metrics&lt;/div&gt;" style="rounded=1;whiteSpace=wrap;html=1;fillColor=#7EA6E0;fontColor=#FFFFFF;strokeColor=none;" vertex="1" parent="1">
          <mxGeometry x="1519" y="695" width="80" height="40" as="geometry" />
        </mxCell>
        <mxCell id="ZbT44DyfTlQuuJ5r1V82-119" value="" style="rounded=1;whiteSpace=wrap;html=1;verticalAlign=middle;fillColor=#DAE8FC;fontColor=#FFFFFF;strokeColor=none;" vertex="1" parent="1">
          <mxGeometry x="433" y="308" width="1056" height="75" as="geometry" />
        </mxCell>
        <mxCell id="ZbT44DyfTlQuuJ5r1V82-121" value="Jenkins" style="rounded=1;whiteSpace=wrap;html=1;fillColor=#7EA6E0;fontColor=#FFFFFF;strokeColor=none;" vertex="1" parent="1">
          <mxGeometry x="1381" y="519" width="80" height="30" as="geometry" />
        </mxCell>
        <mxCell id="ZbT44DyfTlQuuJ5r1V82-123" value="EFK" style="rounded=1;whiteSpace=wrap;html=1;fillColor=#7EA6E0;fontColor=#FFFFFF;strokeColor=none;" vertex="1" parent="1">
          <mxGeometry x="1380" y="430" width="80" height="25" as="geometry" />
        </mxCell>
        <mxCell id="ZbT44DyfTlQuuJ5r1V82-126" value="开发平台" style="rounded=1;whiteSpace=wrap;html=1;verticalAlign=top;fillColor=#dae8fc;strokeColor=none;fontColor=#7EA6E0;" vertex="1" parent="1">
          <mxGeometry x="546" y="447" width="432" height="102" as="geometry" />
        </mxCell>
        <mxCell id="ZbT44DyfTlQuuJ5r1V82-130" value="消息总线" style="rounded=1;whiteSpace=wrap;html=1;verticalAlign=top;fillColor=#dae8fc;strokeColor=none;fontColor=#7EA6E0;" vertex="1" parent="1">
          <mxGeometry x="433" y="394" width="94" height="87" as="geometry" />
        </mxCell>
        <mxCell id="ZbT44DyfTlQuuJ5r1V82-131" value="RabbitMQ" style="rounded=1;whiteSpace=wrap;html=1;verticalAlign=top;fillColor=#7EA6E0;fontColor=#FFFFFF;strokeColor=none;" vertex="1" parent="1">
          <mxGeometry x="450" y="427.5" width="60" height="30" as="geometry" />
        </mxCell>
        <mxCell id="ZbT44DyfTlQuuJ5r1V82-132" value="集成" style="rounded=1;whiteSpace=wrap;html=1;verticalAlign=top;fillColor=#dae8fc;strokeColor=none;fontColor=#7EA6E0;" vertex="1" parent="1">
          <mxGeometry x="433" y="492" width="94" height="123" as="geometry" />
        </mxCell>
        <mxCell id="ZbT44DyfTlQuuJ5r1V82-133" value="OnlyOffice" style="rounded=1;whiteSpace=wrap;html=1;verticalAlign=top;fillColor=#7EA6E0;fontColor=#FFFFFF;strokeColor=none;" vertex="1" parent="1">
          <mxGeometry x="450" y="527" width="60" height="30" as="geometry" />
        </mxCell>
        <mxCell id="ZbT44DyfTlQuuJ5r1V82-134" value="DataEase" style="rounded=1;whiteSpace=wrap;html=1;verticalAlign=top;fillColor=#7EA6E0;fontColor=#FFFFFF;strokeColor=none;" vertex="1" parent="1">
          <mxGeometry x="450" y="567" width="60" height="30" as="geometry" />
        </mxCell>
        <mxCell id="ZbT44DyfTlQuuJ5r1V82-136" value="Grafana" style="rounded=1;whiteSpace=wrap;html=1;fillColor=#7EA6E0;fontColor=#FFFFFF;strokeColor=none;" vertex="1" parent="1">
          <mxGeometry x="1519" y="768" width="80" height="40" as="geometry" />
        </mxCell>
        <mxCell id="ZbT44DyfTlQuuJ5r1V82-137" value="Skywalking" style="rounded=1;whiteSpace=wrap;html=1;fillColor=#7EA6E0;fontColor=#FFFFFF;strokeColor=none;" vertex="1" parent="1">
          <mxGeometry x="1519" y="840" width="80" height="40" as="geometry" />
        </mxCell>
        <mxCell id="q9tbtXxXNj_UV8Hw5mhD-3" value="字典服务" style="rounded=1;whiteSpace=wrap;html=1;verticalAlign=top;fillColor=#7EA6E0;fontColor=#FFFFFF;strokeColor=none;" vertex="1" parent="1">
          <mxGeometry x="733" y="579" width="117" height="30" as="geometry" />
        </mxCell>
        <mxCell id="q9tbtXxXNj_UV8Hw5mhD-4" value="追踪服务" style="rounded=1;whiteSpace=wrap;html=1;verticalAlign=top;fillColor=#7EA6E0;fontColor=#FFFFFF;strokeColor=none;" vertex="1" parent="1">
          <mxGeometry x="887.5" y="580.5" width="121" height="30" as="geometry" />
        </mxCell>
        <mxCell id="q9tbtXxXNj_UV8Hw5mhD-5" value="搜索服务" style="rounded=1;whiteSpace=wrap;html=1;verticalAlign=top;fillColor=#7EA6E0;fontColor=#FFFFFF;strokeColor=none;" vertex="1" parent="1">
          <mxGeometry x="580" y="580.5" width="118" height="30" as="geometry" />
        </mxCell>
        <mxCell id="q9tbtXxXNj_UV8Hw5mhD-6" value="消息服务" style="rounded=1;whiteSpace=wrap;html=1;verticalAlign=top;fillColor=#7EA6E0;fontColor=#FFFFFF;strokeColor=none;" vertex="1" parent="1">
          <mxGeometry x="1216.5" y="577.5" width="103.5" height="30" as="geometry" />
        </mxCell>
        <mxCell id="q9tbtXxXNj_UV8Hw5mhD-10" value="" style="rounded=0;whiteSpace=wrap;html=1;verticalAlign=top;fillColor=none;strokeColor=#004C15;fontColor=#7EA6E0;opacity=70;strokeWidth=2;" vertex="1" parent="1">
          <mxGeometry x="433" y="-118" width="1070" height="110" as="geometry" />
        </mxCell>
        <mxCell id="jI6AEKwuXM7HXxSCReEK-2" value="运行平台" style="rounded=1;whiteSpace=wrap;html=1;verticalAlign=top;fillColor=#dae8fc;strokeColor=none;fontColor=#7EA6E0;" vertex="1" parent="1">
          <mxGeometry x="996" y="447" width="346" height="102" as="geometry" />
        </mxCell>
        <mxCell id="kIJ17uNPAeN_5bLKEpkp-1" value="报表" style="rounded=0;whiteSpace=wrap;html=1;" vertex="1" parent="1">
          <mxGeometry x="345" y="-456" width="80" height="40" as="geometry" />
        </mxCell>
        <mxCell id="kIJ17uNPAeN_5bLKEpkp-2" value="大屏" style="rounded=0;whiteSpace=wrap;html=1;" vertex="1" parent="1">
          <mxGeometry x="455" y="-456" width="80" height="40" as="geometry" />
        </mxCell>
        <mxCell id="kIJ17uNPAeN_5bLKEpkp-3" value="渲染引擎" style="rounded=0;whiteSpace=wrap;html=1;" vertex="1" parent="1">
          <mxGeometry x="345" y="-511" width="80" height="40" as="geometry" />
        </mxCell>
        <mxCell id="kIJ17uNPAeN_5bLKEpkp-4" value="执行引擎" style="rounded=0;whiteSpace=wrap;html=1;" vertex="1" parent="1">
          <mxGeometry x="455" y="-511" width="80" height="40" as="geometry" />
        </mxCell>
        <mxCell id="kIJ17uNPAeN_5bLKEpkp-5" value="流程引擎" style="rounded=0;whiteSpace=wrap;html=1;" vertex="1" parent="1">
          <mxGeometry x="345" y="-401" width="80" height="40" as="geometry" />
        </mxCell>
        <mxCell id="kIJ17uNPAeN_5bLKEpkp-6" value="......" style="rounded=0;whiteSpace=wrap;html=1;" vertex="1" parent="1">
          <mxGeometry x="455" y="-401" width="80" height="40" as="geometry" />
        </mxCell>
        <mxCell id="V4SBivtTWdESJ9Hyds8n-3" value="&lt;span style=&quot;&quot;&gt;表单引擎&lt;/span&gt;" style="rounded=1;whiteSpace=wrap;html=1;verticalAlign=top;fillColor=#7EA6E0;fontColor=#FFFFFF;strokeColor=none;" vertex="1" parent="1">
          <mxGeometry x="1012.5" y="474" width="90" height="30" as="geometry" />
        </mxCell>
        <mxCell id="V4SBivtTWdESJ9Hyds8n-4" value="&lt;span style=&quot;&quot;&gt;报表&lt;/span&gt;" style="rounded=1;whiteSpace=wrap;html=1;verticalAlign=top;fillColor=#7EA6E0;fontColor=#FFFFFF;strokeColor=none;" vertex="1" parent="1">
          <mxGeometry x="1012.5" y="512" width="90" height="28" as="geometry" />
        </mxCell>
        <mxCell id="V4SBivtTWdESJ9Hyds8n-5" value="页面引擎" style="rounded=1;whiteSpace=wrap;html=1;verticalAlign=top;fillColor=#7EA6E0;fontColor=#FFFFFF;strokeColor=none;" vertex="1" parent="1">
          <mxGeometry x="1124" y="474" width="90" height="30" as="geometry" />
        </mxCell>
        <mxCell id="V4SBivtTWdESJ9Hyds8n-6" value="&lt;span style=&quot;&quot;&gt;大屏&lt;/span&gt;" style="rounded=1;whiteSpace=wrap;html=1;verticalAlign=top;fillColor=#7EA6E0;fontColor=#FFFFFF;strokeColor=none;" vertex="1" parent="1">
          <mxGeometry x="1124" y="512" width="90" height="28" as="geometry" />
        </mxCell>
        <mxCell id="V4SBivtTWdESJ9Hyds8n-7" value="&lt;span style=&quot;&quot;&gt;流程引擎&lt;/span&gt;" style="rounded=1;whiteSpace=wrap;html=1;verticalAlign=top;fillColor=#7EA6E0;fontColor=#FFFFFF;strokeColor=none;" vertex="1" parent="1">
          <mxGeometry x="1236" y="474" width="90" height="30" as="geometry" />
        </mxCell>
        <mxCell id="V4SBivtTWdESJ9Hyds8n-8" value="观测服务" style="rounded=1;whiteSpace=wrap;html=1;verticalAlign=top;fillColor=#7EA6E0;fontColor=#FFFFFF;strokeColor=none;" vertex="1" parent="1">
          <mxGeometry x="1053" y="578.5" width="120" height="30" as="geometry" />
        </mxCell>
        <mxCell id="V4SBivtTWdESJ9Hyds8n-9" value="&lt;div&gt;&lt;br&gt;&lt;/div&gt;&lt;div&gt;MySQL&lt;/div&gt;" style="shape=cylinder3;whiteSpace=wrap;html=1;boundedLbl=1;backgroundOutline=1;size=15;rounded=0;strokeColor=default;align=center;verticalAlign=bottom;fontFamily=Helvetica;fontSize=12;fontColor=#FFFFFF;fillColor=#7EA6E0;strokeWidth=0;" vertex="1" parent="1">
          <mxGeometry x="490" y="658" width="100" height="53.5" as="geometry" />
        </mxCell>
        <mxCell id="V4SBivtTWdESJ9Hyds8n-10" value="&lt;div&gt;Oracle&lt;/div&gt;" style="shape=cylinder3;whiteSpace=wrap;html=1;boundedLbl=1;backgroundOutline=1;size=15;rounded=0;strokeColor=default;align=center;verticalAlign=bottom;fontFamily=Helvetica;fontSize=12;fontColor=#FFFFFF;fillColor=#7EA6E0;strokeWidth=0;" vertex="1" parent="1">
          <mxGeometry x="633" y="660.25" width="100" height="53.5" as="geometry" />
        </mxCell>
        <mxCell id="V4SBivtTWdESJ9Hyds8n-11" value="......" style="shape=cylinder3;whiteSpace=wrap;html=1;boundedLbl=1;backgroundOutline=1;size=15;rounded=0;strokeColor=default;align=center;verticalAlign=bottom;fontFamily=Helvetica;fontSize=12;fontColor=#FFFFFF;fillColor=#7EA6E0;strokeWidth=0;" vertex="1" parent="1">
          <mxGeometry x="919" y="658" width="100" height="53.5" as="geometry" />
        </mxCell>
        <mxCell id="V4SBivtTWdESJ9Hyds8n-12" value="&lt;span style=&quot;&quot;&gt;Office设计器&lt;/span&gt;" style="rounded=1;whiteSpace=wrap;html=1;verticalAlign=top;fillColor=#7EA6E0;fontColor=#FFFFFF;strokeColor=none;" vertex="1" parent="1">
          <mxGeometry x="590" y="475" width="90" height="30" as="geometry" />
        </mxCell>
        <mxCell id="V4SBivtTWdESJ9Hyds8n-13" value="表单设计器" style="rounded=1;whiteSpace=wrap;html=1;verticalAlign=top;fillColor=#7EA6E0;fontColor=#FFFFFF;strokeColor=none;" vertex="1" parent="1">
          <mxGeometry x="720" y="475" width="90" height="30" as="geometry" />
        </mxCell>
        <mxCell id="V4SBivtTWdESJ9Hyds8n-14" value="&lt;div&gt;MongoDB&lt;/div&gt;" style="shape=cylinder3;whiteSpace=wrap;html=1;boundedLbl=1;backgroundOutline=1;size=15;rounded=0;strokeColor=default;align=center;verticalAlign=bottom;fontFamily=Helvetica;fontSize=12;fontColor=#FFFFFF;fillColor=#7EA6E0;strokeWidth=0;" vertex="1" parent="1">
          <mxGeometry x="776" y="660.25" width="100" height="53.5" as="geometry" />
        </mxCell>
        <mxCell id="V4SBivtTWdESJ9Hyds8n-15" value="&lt;span style=&quot;&quot;&gt;脚本执行引擎&lt;/span&gt;" style="rounded=1;whiteSpace=wrap;html=1;verticalAlign=top;fillColor=#7EA6E0;fontColor=#FFFFFF;strokeColor=none;" vertex="1" parent="1">
          <mxGeometry x="1236" y="512" width="90" height="28" as="geometry" />
        </mxCell>
        <mxCell id="V4SBivtTWdESJ9Hyds8n-16" value="页面设计器" style="rounded=1;whiteSpace=wrap;html=1;verticalAlign=top;fillColor=#7EA6E0;fontColor=#FFFFFF;strokeColor=none;" vertex="1" parent="1">
          <mxGeometry x="850" y="475" width="90" height="30" as="geometry" />
        </mxCell>
        <mxCell id="V4SBivtTWdESJ9Hyds8n-17" value="&lt;span style=&quot;&quot;&gt;流程设计器&lt;/span&gt;" style="rounded=1;whiteSpace=wrap;html=1;verticalAlign=top;fillColor=#7EA6E0;fontColor=#FFFFFF;strokeColor=none;" vertex="1" parent="1">
          <mxGeometry x="590" y="513" width="90" height="30" as="geometry" />
        </mxCell>
        <mxCell id="V4SBivtTWdESJ9Hyds8n-18" value="&lt;span style=&quot;&quot;&gt;业务流程编排&lt;/span&gt;" style="rounded=1;whiteSpace=wrap;html=1;verticalAlign=top;fillColor=#7EA6E0;fontColor=#FFFFFF;strokeColor=none;" vertex="1" parent="1">
          <mxGeometry x="720" y="513" width="90" height="30" as="geometry" />
        </mxCell>
        <mxCell id="V4SBivtTWdESJ9Hyds8n-19" value="&lt;span style=&quot;&quot;&gt;业务模型设计&lt;/span&gt;" style="rounded=1;whiteSpace=wrap;html=1;verticalAlign=top;fillColor=#7EA6E0;fontColor=#FFFFFF;strokeColor=none;" vertex="1" parent="1">
          <mxGeometry x="850" y="513" width="90" height="30" as="geometry" />
        </mxCell>
        <mxCell id="V4SBivtTWdESJ9Hyds8n-21" value="Rancher" style="rounded=1;whiteSpace=wrap;html=1;fillColor=#7EA6E0;strokeColor=none;fontColor=#FFFFFF;arcSize=0;" vertex="1" parent="1">
          <mxGeometry x="1361.5" y="757" width="100" height="30" as="geometry" />
        </mxCell>
        <mxCell id="V4SBivtTWdESJ9Hyds8n-22" value="Registry" style="rounded=1;whiteSpace=wrap;html=1;fillColor=#7EA6E0;strokeColor=none;fontColor=#FFFFFF;" vertex="1" parent="1">
          <mxGeometry x="606" y="759" width="100" height="30" as="geometry" />
        </mxCell>
        <mxCell id="V4SBivtTWdESJ9Hyds8n-23" value="Debian" style="rounded=1;whiteSpace=wrap;html=1;fillColor=#7EA6E0;strokeColor=none;fontColor=#FFFFFF;" vertex="1" parent="1">
          <mxGeometry x="758" y="759" width="100" height="30" as="geometry" />
        </mxCell>
        <mxCell id="V4SBivtTWdESJ9Hyds8n-24" value="JVM" style="rounded=1;whiteSpace=wrap;html=1;fillColor=#7EA6E0;strokeColor=none;fontColor=#FFFFFF;" vertex="1" parent="1">
          <mxGeometry x="909" y="758" width="100" height="30" as="geometry" />
        </mxCell>
        <mxCell id="V4SBivtTWdESJ9Hyds8n-25" value="&lt;span style=&quot;&quot;&gt;GrallVM&lt;/span&gt;" style="rounded=1;whiteSpace=wrap;html=1;verticalAlign=top;fillColor=#7EA6E0;fontColor=#FFFFFF;strokeColor=none;" vertex="1" parent="1">
          <mxGeometry x="1060.75" y="759" width="90" height="28" as="geometry" />
        </mxCell>
        <mxCell id="V4SBivtTWdESJ9Hyds8n-27" value="redis" style="shape=cylinder3;whiteSpace=wrap;html=1;boundedLbl=1;backgroundOutline=1;size=15;rounded=0;strokeColor=default;align=center;verticalAlign=middle;fontFamily=Helvetica;fontSize=12;fontColor=#FFFFFF;fillColor=#7EA6E0;strokeWidth=0;direction=south;" vertex="1" parent="1">
          <mxGeometry x="1122" y="662.88" width="84.75" height="43.75" as="geometry" />
        </mxCell>
        <mxCell id="V4SBivtTWdESJ9Hyds8n-28" value="MinIO" style="shape=cylinder3;whiteSpace=wrap;html=1;boundedLbl=1;backgroundOutline=1;size=15;rounded=0;strokeColor=default;align=center;verticalAlign=middle;fontFamily=Helvetica;fontSize=12;fontColor=#FFFFFF;fillColor=#7EA6E0;strokeWidth=0;direction=south;" vertex="1" parent="1">
          <mxGeometry x="1243.38" y="662.88" width="84.75" height="43.75" as="geometry" />
        </mxCell>
        <mxCell id="V4SBivtTWdESJ9Hyds8n-29" value="NFS" style="shape=cylinder3;whiteSpace=wrap;html=1;boundedLbl=1;backgroundOutline=1;size=15;rounded=0;strokeColor=default;align=center;verticalAlign=middle;fontFamily=Helvetica;fontSize=12;fontColor=#FFFFFF;fillColor=#7EA6E0;strokeWidth=0;direction=south;" vertex="1" parent="1">
          <mxGeometry x="1361.5" y="662.88" width="84.75" height="43.75" as="geometry" />
        </mxCell>
        <mxCell id="V4SBivtTWdESJ9Hyds8n-31" value="&lt;span style=&quot;&quot;&gt;REST API&lt;/span&gt;" style="rounded=1;whiteSpace=wrap;html=1;verticalAlign=top;fillColor=#7EA6E0;fontColor=#FFFFFF;strokeColor=none;" vertex="1" parent="1">
          <mxGeometry x="586" y="400" width="121" height="30" as="geometry" />
        </mxCell>
        <mxCell id="V4SBivtTWdESJ9Hyds8n-32" value="&lt;span style=&quot;&quot;&gt;Websocket&lt;/span&gt;" style="rounded=1;whiteSpace=wrap;html=1;verticalAlign=top;fillColor=#7EA6E0;fontColor=#FFFFFF;strokeColor=none;" vertex="1" parent="1">
          <mxGeometry x="752" y="400" width="106" height="30" as="geometry" />
        </mxCell>
        <mxCell id="V4SBivtTWdESJ9Hyds8n-33" value="&lt;span style=&quot;&quot;&gt;Event Listener&lt;/span&gt;" style="rounded=1;whiteSpace=wrap;html=1;verticalAlign=middle;fillColor=#7EA6E0;fontColor=#FFFFFF;strokeColor=none;" vertex="1" parent="1">
          <mxGeometry x="892" y="400" width="182" height="30" as="geometry" />
        </mxCell>
        <mxCell id="V4SBivtTWdESJ9Hyds8n-35" value="&lt;span style=&quot;&quot;&gt;Message Subscriber&lt;/span&gt;" style="rounded=1;whiteSpace=wrap;html=1;verticalAlign=middle;fillColor=#7EA6E0;fontColor=#FFFFFF;strokeColor=none;" vertex="1" parent="1">
          <mxGeometry x="1124" y="401" width="163" height="30" as="geometry" />
        </mxCell>
        <mxCell id="V4SBivtTWdESJ9Hyds8n-36" value="&lt;span style=&quot;&quot;&gt;统一身份认证&lt;/span&gt;" style="rounded=1;whiteSpace=wrap;html=1;verticalAlign=middle;fillColor=#7EA6E0;fontColor=#FFFFFF;strokeColor=none;" vertex="1" parent="1">
          <mxGeometry x="462.25" y="328" width="152.75" height="35" as="geometry" />
        </mxCell>
        <mxCell id="V4SBivtTWdESJ9Hyds8n-37" value="微前端" style="rounded=1;whiteSpace=wrap;html=1;verticalAlign=middle;fillColor=#7EA6E0;fontColor=#FFFFFF;strokeColor=none;" vertex="1" parent="1">
          <mxGeometry x="666" y="328" width="125" height="35" as="geometry" />
        </mxCell>
        <mxCell id="V4SBivtTWdESJ9Hyds8n-38" value="负载均衡" style="rounded=1;whiteSpace=wrap;html=1;verticalAlign=middle;fillColor=#7EA6E0;fontColor=#FFFFFF;strokeColor=none;" vertex="1" parent="1">
          <mxGeometry x="842" y="328" width="87" height="35" as="geometry" />
        </mxCell>
        <mxCell id="V4SBivtTWdESJ9Hyds8n-39" value="服务网关" style="rounded=1;whiteSpace=wrap;html=1;verticalAlign=middle;fillColor=#7EA6E0;fontColor=#FFFFFF;strokeColor=none;" vertex="1" parent="1">
          <mxGeometry x="979" y="328" width="96" height="35" as="geometry" />
        </mxCell>
        <mxCell id="V4SBivtTWdESJ9Hyds8n-40" value="权限控制" style="rounded=1;whiteSpace=wrap;html=1;verticalAlign=middle;fillColor=#7EA6E0;fontColor=#FFFFFF;strokeColor=none;" vertex="1" parent="1">
          <mxGeometry x="1126" y="328" width="129" height="35" as="geometry" />
        </mxCell>
        <mxCell id="V4SBivtTWdESJ9Hyds8n-45" value="&lt;span style=&quot;color: rgb(255, 255, 255);&quot;&gt;私有云&lt;/span&gt;" style="ellipse;shape=cloud;whiteSpace=wrap;html=1;rounded=0;strokeColor=#7EA6E0;align=center;verticalAlign=middle;fontFamily=Helvetica;fontSize=12;fontColor=#7EA6E0;fillColor=#7EA6E0;" vertex="1" parent="1">
          <mxGeometry x="555" y="818.5" width="157" height="57" as="geometry" />
        </mxCell>
        <mxCell id="V4SBivtTWdESJ9Hyds8n-46" value="&lt;font color=&quot;#ffffff&quot;&gt;混合云&lt;/font&gt;" style="ellipse;shape=cloud;whiteSpace=wrap;html=1;rounded=0;strokeColor=#7EA6E0;align=center;verticalAlign=middle;fontFamily=Helvetica;fontSize=12;fontColor=#7EA6E0;fillColor=#7EA6E0;" vertex="1" parent="1">
          <mxGeometry x="903" y="818.5" width="157" height="57" as="geometry" />
        </mxCell>
        <mxCell id="V4SBivtTWdESJ9Hyds8n-47" value="&lt;font color=&quot;#ffffff&quot;&gt;公有云&lt;/font&gt;" style="ellipse;shape=cloud;whiteSpace=wrap;html=1;rounded=0;strokeColor=#7EA6E0;align=center;verticalAlign=middle;fontFamily=Helvetica;fontSize=12;fontColor=#7EA6E0;fillColor=#7EA6E0;" vertex="1" parent="1">
          <mxGeometry x="1251.5" y="818.5" width="157" height="57" as="geometry" />
        </mxCell>
        <mxCell id="V4SBivtTWdESJ9Hyds8n-48" value="SSO" style="rounded=1;whiteSpace=wrap;html=1;verticalAlign=middle;fillColor=#7EA6E0;fontColor=#FFFFFF;strokeColor=none;" vertex="1" parent="1">
          <mxGeometry x="1306" y="328" width="129" height="35" as="geometry" />
        </mxCell>
      </root>
    </mxGraphModel>
  </diagram>
</mxfile>
